<svg id="Layer_1" data-name="Layer 1" xmlns="http://www.w3.org/2000/svg" viewBox="0 0 16 16">
  <defs>
    <style>
      .cls-1 {
        fill: none;
      }
    </style>
  </defs>
  <g id="Safari_Pinned_Tab" data-name="Safari Pinned Tab">
    <path class="cls-1" d="M90,39.8A50.2,50.2,0,1,0,140.2,90,50.26,50.26,0,0,0,90,39.8ZM95.58,43a47.3,47.3,0,0,1,23.71,9.82l-4,4a41.78,41.78,0,0,0-19.74-8.17ZM84.42,43v5.61a41.78,41.78,0,0,0-19.74,8.17l-4-4A47.3,47.3,0,0,1,84.42,43ZM52.82,60.71l4,4a41.78,41.78,0,0,0-8.17,19.74H43A47.3,47.3,0,0,1,52.82,60.71Zm0,58.58A47.3,47.3,0,0,1,43,95.58h5.61a41.78,41.78,0,0,0,8.17,19.74ZM84.42,137a47.3,47.3,0,0,1-23.71-9.82l4-4a41.78,41.78,0,0,0,19.74,8.17Zm9.22-11.92H86.36V107a17.48,17.48,0,0,1-5.78-2.4L67.77,117.38l-5.15-5.15L75.43,99.42A17.48,17.48,0,0,1,73,93.64H54.92V86.36H73a17.48,17.48,0,0,1,2.4-5.78L62.62,67.77l5.15-5.15L80.58,75.43A17.48,17.48,0,0,1,86.36,73V54.92h7.28V73a17.48,17.48,0,0,1,5.78,2.4l12.81-12.81,5.15,5.15L104.57,80.58a17.48,17.48,0,0,1,2.4,5.78h18.11v7.28H107a17.48,17.48,0,0,1-2.4,5.78l12.81,12.81-5.15,5.15L99.42,104.57a17.48,17.48,0,0,1-5.78,2.4ZM95.58,137v-5.61a41.78,41.78,0,0,0,19.74-8.17l4,4A47.3,47.3,0,0,1,95.58,137Zm31.6-17.71-4-4a41.78,41.78,0,0,0,8.17-19.74H137A47.3,47.3,0,0,1,127.18,119.29ZM137,84.42h-5.61a41.78,41.78,0,0,0-8.17-19.74l4-4A47.3,47.3,0,0,1,137,84.42Z"/>
    <path class="cls-1" d="M90,29.53A60.47,60.47,0,1,0,150.47,90,60.47,60.47,0,0,0,90,29.53Zm39.59,100.06A56,56,0,1,1,146,90,55.59,55.59,0,0,1,129.59,129.59Z"/>
    <path d="M0,0V180H180V0ZM90,150.47A60.47,60.47,0,1,1,150.47,90,60.47,60.47,0,0,1,90,150.47Z"/>
    <path d="M90,34a56,56,0,1,0,39.59,16.4A55.59,55.59,0,0,0,90,34ZM90,140.2A50.2,50.2,0,1,1,140.2,90,50.26,50.26,0,0,1,90,140.2Z"/>
    <path d="M84.42,48.61V43a47.3,47.3,0,0,0-23.71,9.82l4,4A41.78,41.78,0,0,1,84.42,48.61Z"/>
    <path d="M119.29,52.82A47.3,47.3,0,0,0,95.58,43v5.61a41.78,41.78,0,0,1,19.74,8.17Z"/>
    <path d="M131.39,84.42H137a47.3,47.3,0,0,0-9.82-23.71l-4,4A41.78,41.78,0,0,1,131.39,84.42Z"/>
    <path d="M123.22,115.32l4,4A47.3,47.3,0,0,0,137,95.58h-5.61A41.78,41.78,0,0,1,123.22,115.32Z"/>
    <path d="M95.58,131.39V137a47.3,47.3,0,0,0,23.71-9.82l-4-4A41.78,41.78,0,0,1,95.58,131.39Z"/>
    <path d="M60.71,127.18A47.3,47.3,0,0,0,84.42,137v-5.61a41.78,41.78,0,0,1-19.74-8.17Z"/>
    <path d="M43,95.58a47.3,47.3,0,0,0,9.82,23.71l4-4a41.78,41.78,0,0,1-8.17-19.74Z"/>
    <path d="M56.78,64.68l-4-4A47.3,47.3,0,0,0,43,84.42h5.61A41.78,41.78,0,0,1,56.78,64.68Z"/>
    <path d="M112.23,117.38l5.15-5.15L104.57,99.42a17.48,17.48,0,0,0,2.4-5.78h18.11V86.36H107a17.48,17.48,0,0,0-2.4-5.78l12.81-12.81-5.15-5.15L99.42,75.43A17.48,17.48,0,0,0,93.64,73V54.92H86.36V73a17.48,17.48,0,0,0-5.78,2.4L67.77,62.62l-5.15,5.15L75.43,80.58A17.48,17.48,0,0,0,73,86.36H54.92v7.28H73a17.48,17.48,0,0,0,2.4,5.78L62.62,112.23l5.15,5.15,12.81-12.81a17.48,17.48,0,0,0,5.78,2.4v18.11h7.28V107a17.48,17.48,0,0,0,5.78-2.4Z"/>
  </g>
</svg>
