<svg id="Слой_1" data-name="Слой 1" xmlns="http://www.w3.org/2000/svg" viewBox="0 0 5500 1080">
  <defs>
    <style>
      .cls-1 {
        fill: #002e74;
      }

      .cls-2 {
        fill: #444;
      }

      .cls-3 {
        fill: #fff;
      }
    </style>
  </defs>
  <g>
    <rect class="cls-1" x="1180.93" y="0.24" width="65" height="1079.53"/>
    <g>
      <path class="cls-2" d="M1543.65,292.78H1427.4l.34,197.65h-42.88V255.93H1544Z"/>
      <path class="cls-2" d="M1705.79,436.16H1588.54l-23.12,54.27h-44.89l105.53-234.5h42.88l105.85,234.5h-45.55ZM1691.38,402l-44.22-102.51L1603.27,402Z"/>
      <path class="cls-2" d="M2027.71,255.93v234.5h-42.88V292.78h-92.46l-2,58.62q-1.68,49.25-8,79.9t-20.43,46.56q-14.07,15.92-38.86,15.92-8.71,0-23.79-3.35l3-37.86a34,34,0,0,0,10,1.34q20.43,0,29-24.29t10.55-76.54l3.35-97.15Z"/>
      <path class="cls-2" d="M2264.22,436.16H2147l-23.11,54.27H2079l105.52-234.5h42.88l105.86,234.5h-45.56ZM2249.82,402,2205.6,299.48,2161.71,402Z"/>
      <path class="cls-2" d="M2470.58,391.6H2427v98.83h-42.88V255.93H2427v98.15h44.89l67.34-98.15h46.23l-80.07,113.56,83.08,120.94h-49.24Z"/>
      <path class="cls-2" d="M2801.22,292.78H2723.5V490.43h-43.21V292.78H2602.9V255.93h198.32Z"/>
      <path class="cls-2" d="M3026.84,354.25q22.62,18.93,22.61,56.11,0,38.86-24.79,59.46T2955,490.43H2854.15V255.93H2897v79.39h65Q3004.23,335.32,3026.84,354.25Zm-34.67,90.95q13.73-11.71,13.73-34.17,0-42.54-52.93-42.54H2897v88.44H2953Q2978.43,456.93,2992.17,445.2Zm91.12-189.27h42.88v234.5h-42.88Z"/>
      <path class="cls-2" d="M3383.45,255.93v234.5h-43.21V402q-33.16,12.39-63,12.39-44.9,0-69.18-21.61t-24.29-62.14v-74.7H3227v70q0,24.8,14.4,37.86t41.21,13.06a137.11,137.11,0,0,0,57.62-12.39V255.93Z"/>
      <path class="cls-2" d="M3672.55,255.93v234.5H3629V389.93H3507.73v100.5h-43.55V255.93h43.55v96.81H3629V255.93Z"/>
      <path class="cls-2" d="M3926.31,354.25q22.62,18.93,22.61,56.11,0,38.86-24.79,59.46t-69.68,20.61H3753.62V255.93h42.88v79.39h65Q3903.7,335.32,3926.31,354.25Zm-34.67,90.95q13.72-11.71,13.73-34.17,0-42.54-52.93-42.54H3796.5v88.44h55.94Q3877.89,456.93,3891.64,445.2Zm91.12-189.27h42.88v234.5h-42.88Z"/>
      <path class="cls-2" d="M4258,478.2a114.81,114.81,0,0,1-44.9-43.05q-16.25-27.47-16.24-62t16.41-62a116.05,116.05,0,0,1,45.06-43.05q28.64-15.57,64.15-15.57,28.81,0,52.6,10a107.37,107.37,0,0,1,40.2,29.14l-28.14,26.47q-25.47-27.47-62.65-27.47-24.12,0-43.21,10.55a76.06,76.06,0,0,0-29.82,29.31q-10.72,18.76-10.72,42.55t10.72,42.54A76,76,0,0,0,4281.24,445q19.1,10.56,43.21,10.56,37.19,0,62.65-27.81l28.14,26.8a107.13,107.13,0,0,1-40.37,29.15q-24,10-52.76,10Q4286.59,493.78,4258,478.2Z"/>
      <path class="cls-2" d="M4646.72,453.91v36.52H4470.84V255.93H4642v36.51H4514.39v61h113.24v35.85H4514.39v64.65Z"/>
      <path class="cls-2" d="M4918.74,255.93v234.5h-43.55V389.93H4753.92v100.5h-43.55V255.93h43.55v96.81h121.27V255.93Z"/>
      <path class="cls-2" d="M5154.91,436.16H5037.66l-23.11,54.27h-44.89l105.52-234.5h42.88l105.86,234.5h-45.56ZM5140.51,402l-44.22-102.51L5052.4,402Z"/>
      <path class="cls-2" d="M5433.3,292.78h-77.72V490.43h-43.22V292.78H5235V255.93H5433.3Z"/>
      <polygon class="cls-2" points="1487.21 582.73 1487.21 622.24 1581.84 622.24 1484.92 788.42 1423.2 788.42 1423.2 582.73 1383.7 582.73 1383.7 827.93 1507.56 827.93 1628.22 620.99 1628.56 620.41 1628.56 582.73 1487.21 582.73"/>
      <g>
        <polygon class="cls-2" points="1895.73 582.73 1840.42 582.73 1771.75 651.41 1686.84 651.41 1686.84 582.73 1647.34 582.73 1647.34 690.91 1787.55 690.91 1895.73 582.73"/>
        <polygon class="cls-2" points="1787.55 720.08 1647.34 720.08 1647.34 827.93 1686.84 827.93 1686.84 759.59 1771.75 759.59 1839.69 827.2 1840.43 827.93 1895.75 827.93 1787.55 720.08"/>
      </g>
      <polygon class="cls-2" points="2004.78 582.73 2004.78 771.13 1913.79 679.82 1886.52 707.86 2005.51 827.19 2006.24 827.93 2044.28 827.93 2044.28 582.73 2004.78 582.73"/>
      <g>
        <polygon class="cls-2" points="2334.91 582.73 2279.6 582.73 2210.93 651.41 2126.02 651.41 2126.02 582.73 2086.51 582.73 2086.51 690.91 2226.73 690.91 2334.91 582.73"/>
        <polygon class="cls-2" points="2226.73 720.08 2086.51 720.08 2086.51 827.93 2126.02 827.93 2126.02 759.59 2210.93 759.59 2278.87 827.2 2279.6 827.93 2334.93 827.93 2226.73 720.08"/>
      </g>
      <polygon class="cls-2" points="2350.16 582.73 2350.16 622.24 2555.51 622.24 2555.51 788.42 2350.16 788.42 2350.16 827.93 2595.02 827.93 2595.02 582.73 2350.16 582.73"/>
      <polygon class="cls-2" points="2831.34 707.69 2768.21 771.13 2768.21 582.73 2728.71 582.73 2728.71 771.13 2665.58 707.69 2610.28 707.69 2729.44 827.19 2730.17 827.93 2766.75 827.93 2886.64 707.69 2831.34 707.69"/>
      <g>
        <polygon class="cls-2" points="2876.74 788.42 2898.22 827.93 3126.99 827.93 3148.47 788.42 2876.74 788.42"/>
        <polygon class="cls-2" points="2988.68 622.24 3036.53 622.24 3105.54 758.92 3148.32 758.92 3059.37 582.73 2965.84 582.73 2876.89 758.92 2919.67 758.92 2988.68 622.24"/>
      </g>
      <polygon class="cls-2" points="3323.91 582.73 3165.54 582.73 3165.54 622.24 3301.28 622.24 3398.19 788.42 3165.54 788.42 3165.54 827.93 3444.91 827.93 3444.91 790.25 3323.91 582.73"/>
      <polygon class="cls-2" points="3607.56 578.64 3529.41 769.43 3503.19 738.74 3503.19 671.91 3530.66 639.41 3530.66 578.44 3463.69 657 3463.69 753.65 3527.01 827.93 3547.93 827.93 3607.56 682.28 3667.18 827.93 3709.78 827.93 3607.56 578.64"/>
      <g>
        <polygon class="cls-2" points="3814.11 622.24 3861.96 622.24 3930.97 758.92 3973.75 758.92 3884.8 582.73 3791.27 582.73 3702.32 758.92 3745.1 758.92 3814.11 622.24"/>
        <polygon class="cls-2" points="3702.18 788.42 3723.65 827.93 3952.42 827.93 3973.9 788.42 3702.18 788.42"/>
      </g>
      <g>
        <polygon class="cls-2" points="4129.99 758.2 4254.92 829.74 4254.92 784.45 4129.99 712.91 4129.99 758.2"/>
        <polygon class="cls-2" points="4335.35 582.73 4335.35 765.05 4180.29 583.61 4179.54 582.73 4127.07 582.73 4335.95 827.05 4336.7 827.93 4374.85 827.93 4374.85 582.73 4335.35 582.73"/>
      </g>
      <polygon class="cls-2" points="4554.26 582.73 4494.63 728.38 4435 582.73 4392.41 582.73 4494.63 832.01 4580.73 622.24 4588.27 622.24 4588.27 827.93 4627.44 827.93 4627.44 622.24 4661.95 622.24 4661.95 582.73 4554.26 582.73"/>
      <polygon class="cls-2" points="4824.6 578.64 4746.45 769.43 4720.23 738.74 4720.23 671.91 4747.71 639.41 4747.71 578.44 4680.73 657 4680.73 753.65 4744.05 827.93 4764.97 827.93 4824.6 682.28 4884.23 827.93 4926.82 827.93 4824.6 578.64"/>
      <g>
        <polygon class="cls-2" points="5192.77 582.73 5137.46 582.73 5068.78 651.41 4983.88 651.41 4983.88 582.73 4944.37 582.73 4944.37 690.91 5084.59 690.91 5192.77 582.73"/>
        <polygon class="cls-2" points="5084.59 720.08 4944.37 720.08 4944.37 827.93 4983.88 827.93 4983.88 759.59 5068.78 759.59 5137.46 827.93 5192.78 827.93 5084.59 720.08"/>
      </g>
      <polygon class="cls-2" points="5402.1 707.69 5338.98 771.13 5338.98 582.73 5299.47 582.73 5299.47 771.13 5236.34 707.69 5181.04 707.69 5300.93 827.93 5337.51 827.93 5457.4 707.69 5402.1 707.69"/>
    </g>
    <g>
      <circle class="cls-3" cx="540" cy="540" r="540"/>
      <g>
        <g>
          <path class="cls-2" d="M540,1040c-133.56,0-259.12-52-353.55-146.45S40,673.55,40,540,92,280.88,186.45,186.45,406.44,40,540,40,799.11,92,893.55,186.45,1040,406.45,1040,540,988,799.12,893.55,893.55,673.55,1040,540,1040Zm0-948.33C292.79,91.67,91.66,292.79,91.66,540S292.79,988.33,540,988.33,988.33,787.21,988.33,540,787.21,91.67,540,91.67Z"/>
          <g>
            <path class="cls-2" d="M313.88,243.36a373.05,373.05,0,0,1,176.25-73V120.27a422.65,422.65,0,0,0-211.66,87.67Z"/>
            <path class="cls-2" d="M589.87,170.35a373,373,0,0,1,176.24,73l35.42-35.42a422.69,422.69,0,0,0-211.66-87.67Z"/>
            <path class="cls-2" d="M836.64,313.88a373,373,0,0,1,73,176.25h50.09a422.69,422.69,0,0,0-87.67-211.66Z"/>
            <path class="cls-2" d="M909.64,589.87a372.9,372.9,0,0,1-73,176.24l35.42,35.42a422.69,422.69,0,0,0,87.67-211.66Z"/>
            <path class="cls-2" d="M766.11,836.64a373,373,0,0,1-176.24,73v50.08a422.69,422.69,0,0,0,211.66-87.67Z"/>
            <path class="cls-2" d="M490.13,909.65a373.05,373.05,0,0,1-176.25-73l-35.41,35.42a422.65,422.65,0,0,0,211.66,87.67Z"/>
            <path class="cls-2" d="M243.35,766.12a373.18,373.18,0,0,1-73-176.25H120.27a422.69,422.69,0,0,0,87.67,211.66Z"/>
            <path class="cls-2" d="M170.35,490.13a373,373,0,0,1,73-176.24l-35.41-35.42a422.69,422.69,0,0,0-87.67,211.66Z"/>
          </g>
        </g>
        <g>
          <circle class="cls-2" cx="540" cy="540" r="155"/>
          <g>
            <rect class="cls-2" x="507.5" y="540" width="65" height="313.28"/>
            <rect class="cls-2" x="272.6" y="618.26" width="313.28" height="65" transform="translate(-334.43 494.11) rotate(-45)"/>
            <rect class="cls-2" x="226.72" y="507.5" width="313.28" height="65"/>
            <rect class="cls-2" x="396.74" y="272.6" width="65" height="313.28" transform="translate(-177.8 429.24) rotate(-45)"/>
            <rect class="cls-2" x="507.5" y="226.72" width="65" height="313.28"/>
            <rect class="cls-2" x="494.12" y="396.74" width="313.28" height="65" transform="translate(-112.91 585.89) rotate(-45)"/>
            <rect class="cls-2" x="540" y="507.5" width="313.28" height="65"/>
            <rect class="cls-2" x="618.26" y="494.12" width="65" height="313.28" transform="translate(-269.55 650.75) rotate(-45)"/>
          </g>
        </g>
      </g>
    </g>
  </g>
</svg>
