<svg id="Слой_1" data-name="Слой 1" xmlns="http://www.w3.org/2000/svg" viewBox="0 0 680 300">
  <defs>
    <style>
      .cls-1 {
        fill: none;
      }

      .cls-2 {
        fill: #233669;
      }

      .cls-3 {
        fill: #fff;
      }
    </style>
  </defs>
  <g>
    <polygon class="cls-1" points="219.66 171.56 215.55 181.48 223.77 181.48 219.66 171.56"/>
    <polygon class="cls-1" points="472.22 181.48 480.43 181.48 476.33 171.56 472.22 181.48"/>
    <polygon class="cls-1" points="270.57 171.56 266.46 181.48 274.68 181.48 270.57 171.56"/>
    <path class="cls-2" d="M0,300H150V0H0ZM75,150a60,60,0,1,1-60,60A60,60,0,0,1,75,150Z"/>
    <path class="cls-3" d="M75,270a60,60,0,1,0-60-60A60,60,0,0,0,75,270ZM35.72,170.72A55.53,55.53,0,1,1,19.44,210,55.16,55.16,0,0,1,35.72,170.72Z"/>
    <path class="cls-3" d="M75,259.81A49.81,49.81,0,1,0,25.19,210,49.86,49.86,0,0,0,75,259.81Zm-5.54-3.17a47,47,0,0,1-23.52-9.74L49.88,243a41.37,41.37,0,0,0,19.58,8.11Zm11.08,0v-5.57A41.37,41.37,0,0,0,100.12,243l3.94,3.94A47,47,0,0,1,80.54,256.64Zm31.36-17.58L108,235.12a41.37,41.37,0,0,0,8.11-19.58h5.57A47,47,0,0,1,111.9,239.06Zm0-58.12a47,47,0,0,1,9.74,23.52h-5.57A41.37,41.37,0,0,0,108,184.88ZM80.54,163.36a47,47,0,0,1,23.52,9.74L100.12,177a41.37,41.37,0,0,0-19.58-8.11Zm-1.93,11.83v18a17.25,17.25,0,0,1,5.74,2.39l12.71-12.72,5.11,5.11L89.45,200.65a17.25,17.25,0,0,1,2.39,5.74h18v7.22h-18a17.25,17.25,0,0,1-2.39,5.74l12.72,12.71-5.11,5.11L84.35,224.45a17.25,17.25,0,0,1-5.74,2.39v18H71.39v-18a17.25,17.25,0,0,1-5.74-2.39L52.94,237.17l-5.11-5.11,12.72-12.71a17.25,17.25,0,0,1-2.39-5.74h-18v-7.22h18a17.25,17.25,0,0,1,2.39-5.74L47.83,187.94l5.11-5.11,12.71,12.72a17.25,17.25,0,0,1,5.74-2.39v-18Zm-9.15-11.83v5.57A41.37,41.37,0,0,0,49.88,177l-3.94-3.94A47,47,0,0,1,69.46,163.36ZM38.1,180.94,42,184.88a41.37,41.37,0,0,0-8.11,19.58H28.36A47,47,0,0,1,38.1,180.94Zm-9.74,34.6h5.57A41.37,41.37,0,0,0,42,235.12l-3.94,3.94A47,47,0,0,1,28.36,215.54Z"/>
    <path d="M75,265.56a55.58,55.58,0,1,0-39.28-16.28A55.16,55.16,0,0,0,75,265.56Zm0-105.37A49.81,49.81,0,1,1,25.19,210,49.86,49.86,0,0,1,75,160.19Z"/>
    <path d="M69.46,168.93v-5.57a47,47,0,0,0-23.52,9.74L49.88,177A41.37,41.37,0,0,1,69.46,168.93Z"/>
    <path d="M104.06,173.1a47,47,0,0,0-23.52-9.74v5.57A41.37,41.37,0,0,1,100.12,177Z"/>
    <path d="M121.64,204.46a47,47,0,0,0-9.74-23.52L108,184.88a41.37,41.37,0,0,1,8.11,19.58Z"/>
    <path d="M108,235.12l3.94,3.94a47,47,0,0,0,9.74-23.52h-5.57A41.37,41.37,0,0,1,108,235.12Z"/>
    <path d="M80.54,251.07v5.57a47,47,0,0,0,23.52-9.74L100.12,243A41.37,41.37,0,0,1,80.54,251.07Z"/>
    <path d="M45.94,246.9a47,47,0,0,0,23.52,9.74v-5.57A41.37,41.37,0,0,1,49.88,243Z"/>
    <path d="M33.93,215.54H28.36a47,47,0,0,0,9.74,23.52L42,235.12A41.37,41.37,0,0,1,33.93,215.54Z"/>
    <path d="M42,184.88l-3.94-3.94a47,47,0,0,0-9.74,23.52h5.57A41.37,41.37,0,0,1,42,184.88Z"/>
    <path d="M65.65,195.55,52.94,182.83l-5.11,5.11,12.72,12.71a17.25,17.25,0,0,0-2.39,5.74h-18v7.22h18a17.25,17.25,0,0,0,2.39,5.74L47.83,232.06l5.11,5.11,12.71-12.72a17.25,17.25,0,0,0,5.74,2.39v18h7.22v-18a17.25,17.25,0,0,0,5.74-2.39l12.71,12.72,5.11-5.11L89.45,219.35a17.25,17.25,0,0,0,2.39-5.74h18v-7.22h-18a17.25,17.25,0,0,0-2.39-5.74l12.72-12.71-5.11-5.11L84.35,195.55a17.25,17.25,0,0,0-5.74-2.39v-18H71.39v18A17.25,17.25,0,0,0,65.65,195.55Z"/>
    <path d="M185.33,190.3a15.08,15.08,0,0,0,7.25,1.72,18.85,18.85,0,0,0,5.58-.85,15.57,15.57,0,0,0,4.89-2.44V178.22h-5.48v7.59a9.69,9.69,0,0,1-4.66,1.11,8.76,8.76,0,0,1-4.35-1.06,7.59,7.59,0,0,1-3-2.94,9.22,9.22,0,0,1,0-8.62,7.46,7.46,0,0,1,3-2.92,9.14,9.14,0,0,1,4.4-1,8.9,8.9,0,0,1,6.7,2.93l3.85-3.56a12.37,12.37,0,0,0-4.66-3.33,16.12,16.12,0,0,0-6.18-1.14,15.4,15.4,0,0,0-7.33,1.72,12.73,12.73,0,0,0-5.09,4.77,13.92,13.92,0,0,0,0,13.8A12.78,12.78,0,0,0,185.33,190.3Z"/>
    <path d="M213.63,186h12l2.3,5.55h6.29l-11.58-25.9h-5.92l-11.55,25.9h6.15Zm6-14.47,4.11,9.92h-8.22Z"/>
    <polygon points="255.92 186.7 242.93 186.7 242.93 165.68 236.94 165.68 236.94 191.58 255.92 191.58 255.92 186.7"/>
    <path d="M264.54,186h12l2.29,5.55h6.29l-11.58-25.9h-5.92l-11.55,25.9h6.15Zm6-14.47,4.11,9.92h-8.22Z"/>
    <path d="M292.72,190.3a14.83,14.83,0,0,0,7.16,1.72,15.19,15.19,0,0,0,6.1-1.18,12,12,0,0,0,4.59-3.44l-3.85-3.55a8.22,8.22,0,0,1-6.51,3.07,8.58,8.58,0,0,1-4.29-1.06,7.42,7.42,0,0,1-2.94-2.94,9.21,9.21,0,0,1,0-8.58,7.42,7.42,0,0,1,2.94-2.94,8.58,8.58,0,0,1,4.29-1.06,8.25,8.25,0,0,1,6.51,3l3.85-3.56a12.19,12.19,0,0,0-4.57-3.4,15.07,15.07,0,0,0-6.09-1.18,14.9,14.9,0,0,0-7.19,1.72,12.79,12.79,0,0,0-5,4.77,13.92,13.92,0,0,0,0,13.8A12.79,12.79,0,0,0,292.72,190.3Z"/>
    <polygon points="319.71 191.58 325.7 191.58 325.7 170.56 333.99 170.56 333.99 165.68 311.42 165.68 311.42 170.56 319.71 170.56 319.71 191.58"/>
    <rect x="337.21" y="165.68" width="5.99" height="25.9"/>
    <path d="M354.58,190.3a14.83,14.83,0,0,0,7.16,1.72,15.19,15.19,0,0,0,6.1-1.18,12,12,0,0,0,4.59-3.44l-3.85-3.55a8.22,8.22,0,0,1-6.51,3.07,8.58,8.58,0,0,1-4.29-1.06,7.42,7.42,0,0,1-2.94-2.94,9.29,9.29,0,0,1,0-8.58,7.42,7.42,0,0,1,2.94-2.94,8.58,8.58,0,0,1,4.29-1.06,8.25,8.25,0,0,1,6.51,3l3.85-3.56a12.11,12.11,0,0,0-4.57-3.4,15.06,15.06,0,0,0-6.08-1.18,14.91,14.91,0,0,0-7.2,1.72,12.76,12.76,0,0,0-5,4.77,13.92,13.92,0,0,0,0,13.8A12.76,12.76,0,0,0,354.58,190.3Z"/>
    <path d="M399.26,186.46a7.44,7.44,0,0,1-3.78.75,14.69,14.69,0,0,1-4.59-.74,13.63,13.63,0,0,1-3.95-2l-2,4.52a14,14,0,0,0,4.61,2.16,21,21,0,0,0,5.94.83,15.13,15.13,0,0,0,6-1.07,8.33,8.33,0,0,0,3.72-2.9,7.11,7.11,0,0,0,1.23-4.06,5.94,5.94,0,0,0-1.35-4.1,8.08,8.08,0,0,0-3.23-2.22,42.5,42.5,0,0,0-4.85-1.41,22.18,22.18,0,0,1-4.24-1.27,2.11,2.11,0,0,1-1.38-2,2.49,2.49,0,0,1,1.2-2.15,6.75,6.75,0,0,1,3.72-.81,14.47,14.47,0,0,1,7.17,2l1.85-4.55a14.1,14.1,0,0,0-4.14-1.7,19.64,19.64,0,0,0-4.85-.59,15,15,0,0,0-6,1.07,8.22,8.22,0,0,0-3.68,2.9,7.25,7.25,0,0,0-1.22,4.09,6.11,6.11,0,0,0,1.35,4.15A7.83,7.83,0,0,0,390,179.7a41.66,41.66,0,0,0,4.84,1.41c1.29.3,2.3.57,3.06.81a5.67,5.67,0,0,1,1.85,1,1.94,1.94,0,0,1,.72,1.54A2.31,2.31,0,0,1,399.26,186.46Z"/>
    <polygon points="430.6 186.77 416.5 186.77 416.5 180.78 428.52 180.78 428.52 176.11 416.5 176.11 416.5 170.49 430.11 170.49 430.11 165.68 410.54 165.68 410.54 191.58 430.6 191.58 430.6 186.77"/>
    <polygon points="441.29 175.85 454.2 191.58 459.12 191.58 459.12 165.68 453.2 165.68 453.2 181.41 440.33 165.68 435.37 165.68 435.37 191.58 441.29 191.58 441.29 175.85"/>
    <path d="M473.4,165.68l-11.54,25.9H468l2.3-5.55h12l2.29,5.55h6.29l-11.58-25.9Zm-1.18,15.8,4.11-9.92,4.1,9.92Z"/>
    <polygon points="503.67 191.58 503.67 170.56 511.96 170.56 511.96 165.68 489.39 165.68 489.39 170.56 497.68 170.56 497.68 191.58 503.67 191.58"/>
    <polygon points="535.23 186.77 521.13 186.77 521.13 180.78 533.16 180.78 533.16 176.11 521.13 176.11 521.13 170.49 534.75 170.49 534.75 165.68 515.18 165.68 515.18 191.58 535.23 191.58 535.23 186.77"/>
    <polygon points="191.39 211.71 201.42 211.71 191.39 228.92 185.47 228.92 185.47 206.2 179.96 206.2 179.96 234.43 194.54 234.43 208.15 211.09 208.15 206.2 191.39 206.2 191.39 211.71"/>
    <polygon points="210.56 206.2 210.56 219.3 226.86 219.3 239.95 206.2 232.22 206.2 224.64 213.79 216.07 213.79 216.07 206.2 210.56 206.2"/>
    <polygon points="210.56 221.37 210.56 234.43 216.07 234.43 216.07 226.88 224.64 226.88 232.22 234.43 239.96 234.43 226.86 221.37 210.56 221.37"/>
    <polygon points="251.52 226.19 242.04 216.68 238.22 220.6 252.01 234.43 257.03 234.43 257.03 206.2 251.52 206.2 251.52 226.19"/>
    <polygon points="262.02 206.2 262.02 219.3 278.32 219.3 291.42 206.2 283.69 206.2 276.1 213.79 267.54 213.79 267.54 206.2 262.02 206.2"/>
    <polygon points="262.02 221.37 262.02 234.43 267.54 234.43 267.54 226.88 276.1 226.88 283.69 234.43 291.42 234.43 278.32 221.37 262.02 221.37"/>
    <polygon points="292.62 211.71 315.31 211.71 315.31 228.92 292.62 228.92 292.62 234.43 320.82 234.43 320.82 206.2 292.62 206.2 292.62 211.71"/>
    <polygon points="347.58 220 341.43 226.19 341.43 206.2 335.91 206.2 335.91 226.19 329.75 220 322.02 220 336.41 234.43 340.93 234.43 355.31 220 347.58 220"/>
    <polygon points="353.4 226.81 359.41 226.81 367.04 211.71 371.61 211.71 379.23 226.81 385.25 226.81 374.84 206.2 363.81 206.2 353.4 226.81"/>
    <polygon points="356.35 234.43 382.3 234.43 385.29 228.92 353.35 228.92 356.35 234.43"/>
    <polygon points="387.12 206.2 387.12 211.71 402.36 211.71 412.39 228.92 387.12 228.92 387.12 234.43 419.12 234.43 419.12 229.54 405.52 206.2 387.12 206.2"/>
    <polygon points="429.19 226.31 427.04 223.79 427.04 216.84 430.07 213.25 430.07 204.74 421.53 214.77 421.53 225.87 428.83 234.43 431.79 234.43 437.99 219.28 444.19 234.43 450.14 234.43 437.99 204.81 429.19 226.31"/>
    <polygon points="451.95 234.43 477.9 234.43 480.9 228.92 448.96 228.92 451.95 234.43"/>
    <polygon points="455.02 226.81 462.64 211.71 467.22 211.71 474.84 226.81 480.85 226.81 470.45 206.2 459.41 206.2 449.01 226.81 455.02 226.81"/>
    <polygon points="504 226.49 518.95 235.05 518.95 228.72 504 220.16 504 226.49"/>
    <polygon points="526.68 225.36 510.31 206.2 503.01 206.2 527.14 234.43 532.19 234.43 532.19 206.2 526.68 206.2 526.68 225.36"/>
    <polygon points="546.33 221.35 540.13 206.2 534.18 206.2 546.33 235.82 556.1 212.02 556.1 234.43 561.57 234.43 561.57 211.71 565.38 211.71 565.38 206.2 552.53 206.2 546.33 221.35"/>
    <polygon points="575.45 226.31 573.3 223.79 573.3 216.84 576.33 213.25 576.33 204.74 567.79 214.77 567.79 225.87 575.09 234.43 578.05 234.43 584.25 219.28 590.45 234.43 596.4 234.43 584.25 204.81 575.45 226.31"/>
    <polygon points="598.39 221.37 598.39 234.43 603.9 234.43 603.9 226.88 612.47 226.88 620.05 234.43 627.79 234.43 614.68 221.37 598.39 221.37"/>
    <polygon points="627.78 206.2 620.05 206.2 612.46 213.79 603.9 213.79 603.9 206.2 598.39 206.2 598.39 219.3 614.69 219.3 627.78 206.2"/>
    <polygon points="650.76 220 644.6 226.19 644.6 206.2 639.09 206.2 639.09 226.19 632.93 220 625.2 220 639.58 234.43 644.1 234.43 658.49 220 650.76 220"/>
  </g>
</svg>
