<svg id="Слой_1" data-name="Слой 1" xmlns="http://www.w3.org/2000/svg" viewBox="0 0 680 300">
  <defs>
    <style>
      .cls-1 {
        fill: #233669;
      }

      .cls-2 {
        fill: #fff;
      }

      .cls-3 {
        fill: none;
      }
    </style>
  </defs>
  <g id="Галактычны_Senate" data-name="Galactic Senate">
    <g id="Эмблема">
      <rect id="Фон" class="cls-1" width="150" height="300"/>
      <g id="Герб_Рэспублікі" data-name="Герб Рэспублікі">
        <circle class="cls-2" cx="75" cy="210" r="60"/>
        <g>
          <g>
            <path d="M75,265.56a55.58,55.58,0,1,1,39.28-16.28A55.16,55.16,0,0,1,75,265.56Zm0-105.37A49.81,49.81,0,1,0,124.81,210,49.86,49.86,0,0,0,75,160.19Z"/>
            <g>
              <path d="M49.88,177a41.37,41.37,0,0,1,19.58-8.11v-5.57a47,47,0,0,0-23.52,9.74Z"/>
              <path d="M80.54,168.93A41.37,41.37,0,0,1,100.12,177l3.94-3.94a47,47,0,0,0-23.52-9.74Z"/>
              <path d="M108,184.88a41.37,41.37,0,0,1,8.11,19.58h5.57a47,47,0,0,0-9.74-23.52Z"/>
              <path d="M116.07,215.54A41.37,41.37,0,0,1,108,235.12l3.94,3.94a47,47,0,0,0,9.74-23.52Z"/>
              <path d="M100.12,243a41.37,41.37,0,0,1-19.58,8.11v5.57a47,47,0,0,0,23.52-9.74Z"/>
              <path d="M69.46,251.07A41.37,41.37,0,0,1,49.88,243l-3.94,3.94a47,47,0,0,0,23.52,9.74Z"/>
              <path d="M42,235.12a41.37,41.37,0,0,1-8.11-19.58H28.36a47,47,0,0,0,9.74,23.52Z"/>
              <path d="M33.93,204.46A41.37,41.37,0,0,1,42,184.88l-3.94-3.94a47,47,0,0,0-9.74,23.52Z"/>
            </g>
          </g>
          <g>
            <circle cx="75" cy="210" r="17.22"/>
            <g>
              <rect x="71.39" y="210" width="7.22" height="34.81"/>
              <rect x="45.29" y="218.7" width="34.81" height="7.22" transform="translate(-138.83 109.44) rotate(-45)"/>
              <rect x="40.19" y="206.39" width="34.81" height="7.22"/>
              <rect x="59.08" y="180.29" width="7.22" height="34.81" transform="translate(-121.43 102.23) rotate(-45)"/>
              <rect x="71.39" y="175.19" width="7.22" height="34.81"/>
              <rect x="69.9" y="194.08" width="34.81" height="7.22" transform="translate(-114.22 119.64) rotate(-45)"/>
              <rect x="75" y="206.39" width="34.81" height="7.22"/>
              <rect x="83.7" y="204.9" width="7.22" height="34.81" transform="translate(-131.62 126.85) rotate(-45)"/>
            </g>
          </g>
        </g>
      </g>
    </g>
    <g>
      <polygon class="cls-3" points="568.86 181.48 577.08 181.48 572.97 171.56 568.86 181.48"/>
      <path class="cls-3" d="M447.25,182.66c0-2.69-1.66-4-5-4h-5.4v8.51h5.4a5.32,5.32,0,0,0,3.64-1.15A4.16,4.16,0,0,0,447.25,182.66Z"/>
      <path class="cls-3" d="M352,182.66q0-4-5-4h-5.4v8.51h5.4A5.34,5.34,0,0,0,350.7,186,4.19,4.19,0,0,0,352,182.66Z"/>
      <polygon class="cls-3" points="263.91 181.48 272.13 181.48 268.02 171.56 263.91 181.48"/>
      <polygon class="cls-3" points="208.67 171.56 204.56 181.48 212.78 181.48 208.67 171.56"/>
      <polygon points="186.14 170.56 198.46 170.56 198.5 165.68 180.22 165.68 180.22 191.58 186.18 191.58 186.14 170.56"/>
      <path d="M200.35,191.58l2.29-5.55h12l2.29,5.55h6.29l-11.58-25.9h-5.92l-11.54,25.9Zm8.32-20,4.11,9.92h-8.22Z"/>
      <path d="M231.78,190.16a11.08,11.08,0,0,0,2.35-5.26A55.75,55.75,0,0,0,235,176l.18-5.41h8.88v21H250v-25.9H230.09l-.37,10.51a30.62,30.62,0,0,1-1.07,7.94c-.57,1.68-1.57,2.53-3,2.53a3.61,3.61,0,0,1-1.08-.15l-.37,5.07a13.48,13.48,0,0,0,3,.41A5.88,5.88,0,0,0,231.78,190.16Z"/>
      <path d="M276.31,191.58h6.29L271,165.68H265.1l-11.55,25.9h6.15L262,186h12Zm-12.4-10.1,4.11-9.92,4.11,9.92Z"/>
      <polygon points="302.8 191.58 309.61 191.58 300.88 178.19 309.35 165.68 303.02 165.68 296.21 176.15 291.92 176.15 291.92 165.68 285.96 165.68 285.96 191.58 291.92 191.58 291.92 181.15 296.07 181.15 302.8 191.58"/>
      <polygon points="317.71 191.58 323.63 191.58 323.63 170.56 331.92 170.56 331.92 165.68 309.46 165.68 309.46 170.56 317.71 170.56 317.71 191.58"/>
      <path d="M355.25,189.27a8.22,8.22,0,0,0,2.79-6.72,7.67,7.67,0,0,0-2.53-6.25c-1.69-1.41-4.12-2.11-7.27-2.11h-6.59v-8.51h-6v25.9h11.69Q352.45,191.58,355.25,189.27Zm-13.6-2.13v-8.51h5.4q5,0,5,4A4.19,4.19,0,0,1,350.7,186a5.34,5.34,0,0,1-3.65,1.15Z"/>
      <rect x="361.33" y="165.68" width="5.96" height="25.9"/>
      <path d="M382.09,183.48a18.51,18.51,0,0,0,6.25-1.22v9.32h5.92v-25.9h-5.92v11.66a13.58,13.58,0,0,1-5.55,1.14,5.76,5.76,0,0,1-4.12-1.35,5.28,5.28,0,0,1-1.43-4v-7.44h-5.92v8.1c0,3.14.93,5.53,2.78,7.2S378.61,183.48,382.09,183.48Z"/>
      <polygon points="406.69 180.96 418.46 180.96 418.46 191.58 424.46 191.58 424.46 165.68 418.46 165.68 418.46 175.89 406.69 175.89 406.69 165.68 400.7 165.68 400.7 191.58 406.69 191.58 406.69 180.96"/>
      <path d="M450.48,189.27a8.2,8.2,0,0,0,2.8-6.72,7.67,7.67,0,0,0-2.54-6.25q-2.53-2.12-7.27-2.11h-6.58v-8.51h-6v25.9h11.69Q447.69,191.58,450.48,189.27Zm-13.59-2.13v-8.51h5.4c3.3,0,5,1.34,5,4a4.16,4.16,0,0,1-1.32,3.33,5.32,5.32,0,0,1-3.64,1.15Z"/>
      <rect x="456.57" y="165.68" width="5.96" height="25.9"/>
      <path d="M487.72,171.4a8.59,8.59,0,0,1,4.3-1.06,8.25,8.25,0,0,1,6.51,3l3.85-3.56a12.27,12.27,0,0,0-4.57-3.4,15.14,15.14,0,0,0-6.09-1.18,15,15,0,0,0-7.2,1.72,12.83,12.83,0,0,0-5,4.77,13.92,13.92,0,0,0,0,13.8,12.76,12.76,0,0,0,5,4.77,14.86,14.86,0,0,0,7.16,1.72,15.24,15.24,0,0,0,6.11-1.18,12.14,12.14,0,0,0,4.59-3.44l-3.85-3.55a8.22,8.22,0,0,1-6.51,3.07,8.59,8.59,0,0,1-4.3-1.06,7.55,7.55,0,0,1-2.94-2.94,9.29,9.29,0,0,1,0-8.58A7.55,7.55,0,0,1,487.72,171.4Z"/>
      <polygon points="526.35 186.77 512.26 186.77 512.26 180.78 524.28 180.78 524.28 176.12 512.26 176.12 512.26 170.49 525.87 170.49 525.87 165.68 506.3 165.68 506.3 191.58 526.35 191.58 526.35 186.77"/>
      <polygon points="537.19 180.96 548.96 180.96 548.96 191.58 554.95 191.58 554.95 165.68 548.96 165.68 548.96 175.89 537.19 175.89 537.19 165.68 531.2 165.68 531.2 191.58 537.19 191.58 537.19 180.96"/>
      <path d="M581.26,191.58h6.29L576,165.68h-5.92l-11.55,25.9h6.15l2.29-5.55h12Zm-12.4-10.1,4.11-9.92,4.11,9.92Z"/>
      <polygon points="595.28 191.58 601.2 191.58 601.2 170.56 609.49 170.56 609.49 165.68 587.03 165.68 587.03 170.56 595.28 170.56 595.28 191.58"/>
      <polygon points="191.39 211.71 201.42 211.71 191.39 228.92 185.47 228.92 185.47 206.2 179.96 206.2 179.96 234.43 194.55 234.43 208.15 211.09 208.15 206.2 191.39 206.2 191.39 211.71"/>
      <polygon points="210.56 206.2 210.56 219.3 226.86 219.3 239.96 206.2 232.22 206.2 224.64 213.79 216.07 213.79 216.07 206.2 210.56 206.2"/>
      <polygon points="210.56 221.37 210.56 234.43 216.07 234.43 216.07 226.88 224.64 226.88 232.22 234.43 239.96 234.43 226.86 221.37 210.56 221.37"/>
      <polygon points="251.52 226.19 242.04 216.68 238.22 220.6 252.02 234.43 257.03 234.43 257.03 206.2 251.52 206.2 251.52 226.19"/>
      <polygon points="262.03 206.2 262.03 219.3 278.32 219.3 291.42 206.2 283.69 206.2 276.1 213.79 267.54 213.79 267.54 206.2 262.03 206.2"/>
      <polygon points="262.03 221.37 262.03 234.43 267.54 234.43 267.54 226.88 276.1 226.88 283.69 234.43 291.43 234.43 278.32 221.37 262.03 221.37"/>
      <polygon points="292.62 211.71 315.31 211.71 315.31 228.92 292.62 228.92 292.62 234.43 320.82 234.43 320.82 206.2 292.62 206.2 292.62 211.71"/>
      <polygon points="347.58 220 341.43 226.19 341.43 206.2 335.91 206.2 335.91 226.19 329.75 220 322.02 220 336.41 234.43 340.93 234.43 355.31 220 347.58 220"/>
      <polygon points="356.35 234.43 382.3 234.43 385.3 228.92 353.35 228.92 356.35 234.43"/>
      <polygon points="363.81 206.2 353.4 226.81 359.41 226.81 367.04 211.71 371.61 211.71 379.24 226.81 385.25 226.81 374.84 206.2 363.81 206.2"/>
      <polygon points="387.12 206.2 387.12 211.71 402.36 211.71 412.39 228.92 387.12 228.92 387.12 234.43 419.12 234.43 419.12 229.54 405.52 206.2 387.12 206.2"/>
      <polygon points="429.19 226.31 427.04 223.79 427.04 216.84 430.08 213.25 430.08 204.75 421.53 214.77 421.53 225.87 428.83 234.43 431.79 234.43 437.99 219.28 444.19 234.43 450.14 234.43 437.99 204.81 429.19 226.31"/>
      <polygon points="451.96 234.43 477.9 234.43 480.9 228.92 448.96 228.92 451.96 234.43"/>
      <polygon points="449.01 226.81 455.02 226.81 462.64 211.71 467.22 211.71 474.84 226.81 480.85 226.81 470.45 206.2 459.41 206.2 449.01 226.81"/>
      <polygon points="526.68 225.36 510.31 206.2 503.01 206.2 527.14 234.43 532.2 234.43 532.2 206.2 526.68 206.2 526.68 225.36"/>
      <polygon points="504 226.49 518.95 235.05 518.95 228.72 504 220.16 504 226.49"/>
      <polygon points="546.33 221.35 540.13 206.2 534.18 206.2 546.33 235.82 556.1 212.02 556.1 234.43 561.57 234.43 561.57 211.71 565.38 211.71 565.38 206.2 552.53 206.2 546.33 221.35"/>
      <polygon points="575.45 226.31 573.3 223.79 573.3 216.84 576.33 213.25 576.33 204.75 567.79 214.77 567.79 225.87 575.09 234.43 578.05 234.43 584.25 219.28 590.45 234.43 596.4 234.43 584.25 204.81 575.45 226.31"/>
      <polygon points="603.9 206.2 598.39 206.2 598.39 219.3 614.69 219.3 627.78 206.2 620.05 206.2 612.46 213.79 603.9 213.79 603.9 206.2"/>
      <polygon points="598.39 221.37 598.39 234.43 603.9 234.43 603.9 226.88 612.47 226.88 620.05 234.43 627.79 234.43 614.68 221.37 598.39 221.37"/>
      <polygon points="650.76 220 644.6 226.19 644.6 206.2 639.09 206.2 639.09 226.19 632.93 220 625.2 220 639.58 234.43 644.1 234.43 658.49 220 650.76 220"/>
    </g>
  </g>
</svg>
